<svg xmlns="http://www.w3.org/2000/svg" xmlns:xlink="http://www.w3.org/1999/xlink" viewBox="0 0 550 102"><defs><style>.\31 6cf4d4b-f093-432d-bc89-92fa195abe9a,.cf4c413c-1bf2-4638-b6cd-5d491d8072d1,.f2f61b57-e1aa-44fa-b530-b5e7013cd992{stroke:#000;stroke-miterlimit:10;}.\31 6cf4d4b-f093-432d-bc89-92fa195abe9a,.f2f61b57-e1aa-44fa-b530-b5e7013cd992{stroke-width:2px;}.cf4c413c-1bf2-4638-b6cd-5d491d8072d1,.f2f61b57-e1aa-44fa-b530-b5e7013cd992{fill:none;}.cf4c413c-1bf2-4638-b6cd-5d491d8072d1{stroke-width:6px;}.c47c9a81-18d7-450e-b24c-4cbaf2876b5a,.e6d0d8cd-e21a-4d9d-85d2-ad54bde9a52a{font-size:70px;font-family:VarelaRound-Regular, Varela Round;}.\31 f5b531c-cc19-49d1-87d3-d521c2945a5e,.e6d0d8cd-e21a-4d9d-85d2-ad54bde9a52a{fill:red;}.\35 25419f9-bfdf-4f4b-8556-97406547a8b7{letter-spacing:-0.01em;}.c47c9a81-18d7-450e-b24c-4cbaf2876b5a,.fd325f48-2834-479b-a571-70da1937046d{fill:blue;}.d98925e3-c3f7-4608-b323-ff2e412671a4{fill:#fff;}</style><symbol id="2e1cf210-1969-4857-8b4c-2afca92dba06" data-name="Repeat2" viewBox="0 0 49 102"><rect class="16cf4d4b-f093-432d-bc89-92fa195abe9a" x="1" y="1" width="12" height="100"/><line class="cf4c413c-1bf2-4638-b6cd-5d491d8072d1" x1="26" y1="1" x2="26" y2="101"/><circle cx="43" cy="38.5" r="6"/><circle cx="43" cy="64" r="6"/></symbol></defs><title>improvision-logo</title><g id="a4de7dc4-81c2-49f9-b24a-b58728266d63" data-name="Layer 2"><g id="07661d4d-caf3-4e1c-b43a-e4ba3961bbd5" data-name="logo"><g id="27643223-9102-48b7-8b54-49a4a7baa6de" data-name="Staff"><line class="f2f61b57-e1aa-44fa-b530-b5e7013cd992" x1="0.18" y1="1" x2="549.82" y2="1"/><line class="f2f61b57-e1aa-44fa-b530-b5e7013cd992" x1="0.37" y1="101" x2="550" y2="101"/><line class="f2f61b57-e1aa-44fa-b530-b5e7013cd992" x1="0.37" y1="51" x2="550" y2="51"/><line class="f2f61b57-e1aa-44fa-b530-b5e7013cd992" x1="0.37" y1="76" x2="550" y2="76"/><line class="f2f61b57-e1aa-44fa-b530-b5e7013cd992" y1="26" x2="549.63" y2="26"/></g><use id="c2dc6fb1-6b76-4c63-8d28-e509ba546867" data-name="repeat-R" width="49" height="102" transform="matrix(-1, 0, 0, 1, 550, 0)" xlink:href="#2e1cf210-1969-4857-8b4c-2afca92dba06"/><use id="217fb563-6270-4c3c-95e4-4529fad59f63" data-name="repeat-L" width="49" height="102" xlink:href="#2e1cf210-1969-4857-8b4c-2afca92dba06"/><text class="e6d0d8cd-e21a-4d9d-85d2-ad54bde9a52a" transform="translate(82.91 68.45)">imp<tspan class="525419f9-bfdf-4f4b-8556-97406547a8b7" x="125.86" y="0">r</tspan><tspan x="151.62" y="0">o</tspan></text><text class="c47c9a81-18d7-450e-b24c-4cbaf2876b5a" transform="translate(276.63 68.45)">vision</text><rect id="3b0bf0b8-7ff9-4a36-98bf-a6f29a49e6a4" data-name="i-cover" class="d98925e3-c3f7-4608-b323-ff2e412671a4" x="58" y="13" width="456" height="12"/><g id="6d588dd4-405e-44a7-9c93-c44fe4c11b57" data-name="i-dots1"><path class="1f5b531c-cc19-49d1-87d3-d521c2945a5e" d="M88.8,20.42a3.44,3.44,0,0,1-1-2.52v-.28a3.59,3.59,0,0,1,3.57-3.57h.42a3.59,3.59,0,0,1,3.57,3.57v.28a3.59,3.59,0,0,1-3.57,3.57h-.42A3.44,3.44,0,0,1,88.8,20.42Z"/></g><g id="2f0d6af0-bf9b-49f3-aecf-5b766048efc6" data-name="i-dots2"><path class="fd325f48-2834-479b-a571-70da1937046d" d="M319.59,20.42a3.44,3.44,0,0,1-1-2.52v-.28a3.59,3.59,0,0,1,3.57-3.57h.42a3.59,3.59,0,0,1,3.57,3.57v.28a3.59,3.59,0,0,1-3.57,3.57h-.42A3.44,3.44,0,0,1,319.59,20.42Z"/><path class="fd325f48-2834-479b-a571-70da1937046d" d="M370.62,20.42a3.44,3.44,0,0,1-1.05-2.52v-.28a3.59,3.59,0,0,1,3.57-3.57h.42a3.59,3.59,0,0,1,3.57,3.57v.28a3.59,3.59,0,0,1-3.57,3.57h-.42A3.44,3.44,0,0,1,370.62,20.42Z"/></g></g></g></svg>