<svg id="logo" xmlns="http://www.w3.org/2000/svg" xmlns:xlink="http://www.w3.org/1999/xlink" viewBox="0 0 550 102"><defs><style>.cls-1,.cls-2,.cls-3{stroke:#000;stroke-miterlimit:10;}.cls-1,.cls-3{stroke-width:2px;}.cls-2,.cls-3{fill:none;}.cls-2{stroke-width:6px;}.cls-4,.cls-6{font-size:70px;font-family:VarelaRound-Regular, Varela Round;}.cls-4,.cls-8{fill:red;}.cls-5{letter-spacing:-0.01em;}.cls-6,.cls-9{fill:blue;}.cls-7{fill:#fff;}</style><symbol id="Repeat2" data-name="Repeat2" viewBox="0 0 49 102"><rect class="cls-1" x="1" y="1" width="12" height="100"/><line class="cls-2" x1="26" y1="1" x2="26" y2="101"/><circle cx="43" cy="38.5" r="6"/><circle cx="43" cy="64" r="6"/></symbol></defs><title>logo</title><g id="staff-bot"><line id="E" class="cls-3" x1="0.37" y1="101" x2="550" y2="101"/><line id="G" class="cls-3" x1="0.37" y1="76" x2="550" y2="76"/><line id="B" class="cls-3" x1="0.37" y1="51" x2="550" y2="51"/></g><g id="text-L"><text class="cls-4" transform="translate(82.91 68.45)">imp<tspan class="cls-5" x="125.86" y="0">r</tspan><tspan x="151.62" y="0">o</tspan></text></g><g id="text-R"><text class="cls-6" transform="translate(276.63 68.45)">vision</text></g><g id="text-mask"><g id="i-cover"><rect class="cls-7" x="58" y="13" width="456" height="12"/><rect class="cls-7" x="58" y="13" width="456" height="12"/><rect class="cls-7" x="58" y="13" width="456" height="12"/></g></g><g id="text-L-top"><g id="i-dots1"><path class="cls-8" d="M88.8,20.42a3.44,3.44,0,0,1-1-2.52v-.28a3.59,3.59,0,0,1,3.57-3.57h.42a3.59,3.59,0,0,1,3.57,3.57v.28a3.59,3.59,0,0,1-3.57,3.57h-.42A3.44,3.44,0,0,1,88.8,20.42Z" transform="translate(0 0)"/></g></g><g id="text-R-top"><g id="i-dots2"><path class="cls-9" d="M319.59,20.42a3.44,3.44,0,0,1-1-2.52v-.28a3.59,3.59,0,0,1,3.57-3.57h.42a3.59,3.59,0,0,1,3.57,3.57v.28a3.59,3.59,0,0,1-3.57,3.57h-.42A3.44,3.44,0,0,1,319.59,20.42Z" transform="translate(0 0)"/><path class="cls-9" d="M370.62,20.42a3.44,3.44,0,0,1-1.05-2.52v-.28a3.59,3.59,0,0,1,3.57-3.57h.42a3.59,3.59,0,0,1,3.57,3.57v.28a3.59,3.59,0,0,1-3.57,3.57h-.42A3.44,3.44,0,0,1,370.62,20.42Z" transform="translate(0 0)"/></g></g><g id="staff-top"><line id="D" class="cls-3" y1="26" x2="549.63" y2="26"/><line id="F" class="cls-3" x1="0.18" y1="1" x2="549.82" y2="1"/><use id="repeat-R" width="49" height="102" transform="matrix(-1, 0, 0, 1, 550, 0)" xlink:href="#Repeat2"/><use id="repeat-L" width="49" height="102" xlink:href="#Repeat2"/></g></svg>