<svg xmlns="http://www.w3.org/2000/svg" viewBox="0 0 100 100"><title>stop</title><defs><style>.cls-1,.cls-2{fill:none;}.cls-1{stroke:#fff;stroke-miterlimit:10;stroke-width:2px;}</style></defs><g id="Layer_2" data-name="Layer 2"><g id="Layer_1-2" data-name="Layer 1"><g id="_Group_" data-name="&lt;Group&gt;"><path class="cls-1" d="M85,2A13,13,0,0,1,98,15V85A13,13,0,0,1,85,98H15A13,13,0,0,1,2,85V15A13,13,0,0,1,15,2H85m0-2H15A15,15,0,0,0,0,15V85a15,15,0,0,0,15,15H85a15,15,0,0,0,15-15V15A15,15,0,0,0,85,0Z"/></g></g></g></svg>