<svg xmlns="http://www.w3.org/2000/svg" viewBox="0 0 100 99.9"><title>upload</title><g id="Layer_2" data-name="Layer 2"><g id="Layer_1-2" data-name="Layer 1"><path d="M87,52.06A13,13,0,0,1,98,64.9v20a13,13,0,0,1-13,13H15a13,13,0,0,1-13-13v-20A13,13,0,0,1,13,52.06V86.9H87V52.06M85,49.9v35H15v-35a15,15,0,0,0-15,15v20a15,15,0,0,0,15,15H85a15,15,0,0,0,15-15v-20a15,15,0,0,0-15-15Z"/><path d="M49.5,2a5.54,5.54,0,0,1,3.94,1.63L78,28.22a5.58,5.58,0,0,1-7.88,7.89L58.39,24.35,55,20.93v46.5a5.58,5.58,0,0,1-11.15,0V21.13l-3.42,3.42L28.85,36.11A5.58,5.58,0,0,1,21,28.22L45.56,3.63A5.54,5.54,0,0,1,49.5,2m0-2a7.56,7.56,0,0,0-5.36,2.22L19.56,26.81a7.57,7.57,0,0,0,0,10.71h0a7.57,7.57,0,0,0,10.71,0L41.83,26V67.43A7.57,7.57,0,0,0,49.4,75h0A7.58,7.58,0,0,0,57,67.43V25.76L68.73,37.52a7.57,7.57,0,0,0,10.71,0h0a7.57,7.57,0,0,0,0-10.71L54.86,2.22A7.56,7.56,0,0,0,49.5,0ZM44.14,2.22Z"/></g></g></svg>