<svg xmlns="http://www.w3.org/2000/svg" viewBox="0 0 101 100"><defs><style>.cls-1{fill:none;}</style></defs><title>arrow</title><g id="Layer_2" data-name="Layer 2"><g id="Layer_1-2" data-name="Layer 1"><path d="M53.84,4.93a5.5,5.5,0,0,1,3.94,1.64L97.37,46.16a5.58,5.58,0,0,1,0,7.88L57.78,93.63a5.58,5.58,0,0,1-7.89-7.89L76.65,59l3.42-3.42H7.58a5.58,5.58,0,1,1,0-11.15H79.87L76.45,41,49.89,14.45a5.58,5.58,0,0,1,4-9.52m0-2a7.58,7.58,0,0,0-5.36,12.94L75,42.42H7.58A7.58,7.58,0,0,0,0,50H0a7.57,7.57,0,0,0,7.58,7.57H75.24L48.48,84.33A7.57,7.57,0,1,0,59.19,95L98.78,55.45a7.57,7.57,0,0,0,0-10.71h0L59.19,5.15a7.55,7.55,0,0,0-5.35-2.22Z"/><rect id="_Slice_" data-name="&lt;Slice&gt;" class="cls-1" x="0.5" width="100" height="100"/></g></g></svg>