<svg xmlns="http://www.w3.org/2000/svg" viewBox="0 0 100 98.3"><title>download</title><g id="Layer_2" data-name="Layer 2"><g id="Layer_1-2" data-name="Layer 1"><path d="M87,50.45A13,13,0,0,1,98,63.3v20a13,13,0,0,1-13,13H15a13,13,0,0,1-13-13v-20A13,13,0,0,1,13,50.45V85.3H87V50.45M85,48.3v35H15v-35a15,15,0,0,0-15,15v20a15,15,0,0,0,15,15H85a15,15,0,0,0,15-15v-20a15,15,0,0,0-15-15Z"/><path d="M49.9,2a5.59,5.59,0,0,1,5.58,5.58V54.07l3.41-3.42L70.65,38.89a5.58,5.58,0,0,1,7.88,7.89L53.94,71.37a5.58,5.58,0,0,1-7.88,0L21.47,46.78a5.6,5.6,0,0,1,0-7.89,5.58,5.58,0,0,1,7.88,0L40.91,50.45l3.42,3.42V7.58A5.58,5.58,0,0,1,49.9,2m0-2h0a7.57,7.57,0,0,0-7.57,7.58V49L30.77,37.48a7.57,7.57,0,0,0-10.71,0h0a7.57,7.57,0,0,0,0,10.71L44.64,72.78h0a7.58,7.58,0,0,0,10.72,0L79.94,48.19A7.57,7.57,0,1,0,69.23,37.48L57.48,49.24V7.58A7.58,7.58,0,0,0,49.9,0ZM44.64,72.78Z"/></g></g></svg>