<svg xmlns="http://www.w3.org/2000/svg" viewBox="0 0 100 100"><defs><style>.cls-1{fill:none;}</style></defs><title>pause</title><g id="Layer_2" data-name="Layer 2"><g id="Layer_1-2" data-name="Layer 1"><path d="M20,2A13,13,0,0,1,33,15V85A13,13,0,0,1,7,85V15A13,13,0,0,1,20,2m0-2h0A15,15,0,0,0,5,15V85a15,15,0,0,0,15,15h0A15,15,0,0,0,35,85V15A15,15,0,0,0,20,0Z"/><path d="M80,2A13,13,0,0,1,93,15V85a13,13,0,0,1-26,0V15A13,13,0,0,1,80,2m0-2h0A15,15,0,0,0,65,15V85a15,15,0,0,0,15,15h0A15,15,0,0,0,95,85V15A15,15,0,0,0,80,0Z"/><rect id="_Slice_" data-name="&lt;Slice&gt;" class="cls-1" width="100" height="100"/></g></g></svg>