<svg xmlns="http://www.w3.org/2000/svg" viewBox="0 0 100 100"><defs><style>.cls-1,.cls-2,.cls-3{fill:none;}.cls-1,.cls-2{stroke:#000;stroke-width:2px;}.cls-1{stroke-miterlimit:10;}.cls-2{stroke-linecap:square;stroke-linejoin:bevel;}</style></defs><title>trash</title><g id="Layer_2" data-name="Layer 2"><g id="Layer_1-2" data-name="Layer 1"><path class="cls-1" d="M29,8.5A15,15,0,0,1,42,1H58A15,15,0,0,1,71,8.5"/><path class="cls-2" d="M92.5,23.5V84a15,15,0,0,1-15,15h-55a15,15,0,0,1-15-15V23.5"/><path d="M27,33a4,4,0,0,1,4,4V84a4,4,0,0,1-8,0V37a4,4,0,0,1,4-4m0-2a6,6,0,0,0-6,6V84a6,6,0,0,0,12,0V37a6,6,0,0,0-6-6Z"/><path d="M50,33a4,4,0,0,1,4,4V84a4,4,0,0,1-8,0V37a4,4,0,0,1,4-4m0-2a6,6,0,0,0-6,6V84a6,6,0,0,0,12,0V37a6,6,0,0,0-6-6Z"/><path d="M73,33a4,4,0,0,1,4,4V84a4,4,0,0,1-8,0V37a4,4,0,0,1,4-4m0-2a6,6,0,0,0-6,6V84a6,6,0,0,0,12,0V37a6,6,0,0,0-6-6Z"/><path class="cls-1" d="M99,23.5H1a15,15,0,0,1,15-15H84A15,15,0,0,1,99,23.5Z"/><rect id="_Slice_" data-name="&lt;Slice&gt;" class="cls-3" width="100" height="100"/></g></g></svg>